<svg width="160" height="45" viewBox="0 0 160 45" fill="none" xmlns="http://www.w3.org/2000/svg">
<path d="M19.1519 26.6367C20.4393 26.6367 21.5299 26.8974 22.4237 27.4187C23.3174 27.9401 23.9877 28.6796 24.4346 29.6372C24.8921 30.5841 25.1209 31.6907 25.1209 32.9568V44.2883H20.7798V34.1059C20.7798 32.9781 20.5085 32.095 19.9658 31.4566C19.4338 30.8182 18.6944 30.499 17.7474 30.499C17.1516 30.499 16.6249 30.6426 16.1674 30.9299C15.7205 31.2066 15.3694 31.6002 15.114 32.1109C14.8693 32.611 14.747 33.1909 14.747 33.8506V44.2883H10.4059V34.1059C10.4059 32.9781 10.1345 32.095 9.59191 31.4566C9.05991 30.8182 8.32043 30.499 7.37348 30.499C6.77764 30.499 6.25096 30.6426 5.79345 30.9299C5.34657 31.2066 4.99545 31.6002 4.74009 32.1109C4.49537 32.611 4.37302 33.1909 4.37302 33.8506V44.2883H0V27.0517H3.83038V28.9349C4.41558 28.2114 5.14441 27.6475 6.01689 27.2432C6.9 26.8389 7.85228 26.6367 8.87371 26.6367C10.0654 26.6367 11.0815 26.8761 11.9221 27.3549C12.7626 27.823 13.417 28.4774 13.8851 29.318C14.449 28.4774 15.1938 27.823 16.1195 27.3549C17.0452 26.8761 18.056 26.6367 19.1519 26.6367Z" fill="black"/>
<path d="M31.0819 36.883C31.2415 38.1172 31.6618 39.0641 32.3428 39.7238C33.0343 40.3835 33.96 40.7133 35.1198 40.7133C35.9603 40.7133 36.6838 40.5271 37.2903 40.1547C37.9074 39.7823 38.3756 39.245 38.6948 38.5428L43.0359 39.7877C42.6103 40.8197 42.0091 41.7135 41.2324 42.4689C40.4557 43.2137 39.562 43.783 38.5512 44.1766C37.5404 44.5703 36.4817 44.7671 35.3751 44.7671C33.6302 44.7671 32.0768 44.3894 30.7148 43.634C29.3636 42.8786 28.3049 41.8252 27.5388 40.4739C26.7834 39.1227 26.4057 37.5958 26.4057 35.8934C26.4057 34.0421 26.7727 32.4142 27.5069 31.0097C28.2517 29.5946 29.2838 28.504 30.6031 27.7379C31.9225 26.9612 33.428 26.5729 35.1198 26.5729C36.7796 26.5729 38.2213 26.9399 39.4449 27.6741C40.6685 28.4082 41.6048 29.451 42.2539 30.8022C42.9135 32.1535 43.2434 33.7389 43.2434 35.5583C43.2434 35.8456 43.2221 36.2871 43.1795 36.883H31.0819ZM35.3113 30.3394C33.0237 30.3394 31.6512 31.4459 31.1936 33.6591H38.7906C38.6416 32.4993 38.2852 31.6587 37.7212 31.1374C37.168 30.6054 36.3647 30.3394 35.3113 30.3394Z" fill="black"/>
<path d="M63.8396 26.6367C65.1271 26.6367 66.2177 26.8974 67.1114 27.4187C68.0052 27.9401 68.6755 28.6796 69.1224 29.6372C69.5799 30.5841 69.8086 31.6907 69.8086 32.9568V44.2883H65.4675V34.1059C65.4675 32.9781 65.1962 32.095 64.6536 31.4566C64.1216 30.8182 63.3821 30.499 62.4352 30.499C61.8393 30.499 61.3127 30.6426 60.8551 30.9299C60.4083 31.2066 60.0571 31.6002 59.8018 32.1109C59.5571 32.611 59.4347 33.1909 59.4347 33.8506V44.2883H55.0936V34.1059C55.0936 32.9781 54.8223 32.095 54.2796 31.4566C53.7477 30.8182 53.0082 30.499 52.0612 30.499C51.4654 30.499 50.9387 30.6426 50.4812 30.9299C50.0343 31.2066 49.6832 31.6002 49.4278 32.1109C49.1831 32.611 49.0608 33.1909 49.0608 33.8506V44.2883H44.6877V27.0517H48.5181V28.9349C49.1033 28.2114 49.8322 27.6475 50.7046 27.2432C51.5877 26.8389 52.54 26.6367 53.5615 26.6367C54.7531 26.6367 55.7692 26.8761 56.6098 27.3549C57.4504 27.823 58.1047 28.4774 58.5729 29.318C59.1368 28.4774 59.8816 27.823 60.8073 27.3549C61.7329 26.8761 62.7437 26.6367 63.8396 26.6367Z" fill="black"/>
<path d="M79.6479 44.7671C77.903 44.7671 76.3815 44.3735 75.0834 43.5861C73.796 42.7988 72.8064 41.7188 72.1148 40.3463C71.4339 38.9631 71.0934 37.4043 71.0934 35.67C71.0934 33.9251 71.4445 32.3663 72.1468 30.9938C72.8596 29.6106 73.8651 28.5306 75.1632 27.7539C76.4719 26.9665 77.9881 26.5729 79.7118 26.5729C81.0524 26.5729 82.26 26.8069 83.3347 27.2751C84.4199 27.7326 85.3137 28.3976 86.0159 29.2701C86.7288 30.1319 87.2129 31.148 87.4683 32.3184L83.1272 33.4675C82.8718 32.5844 82.4303 31.8928 81.8025 31.3927C81.1747 30.882 80.4566 30.6267 79.6479 30.6267C78.3286 30.6267 77.3391 31.0895 76.6794 32.0152C76.0197 32.9409 75.6899 34.1591 75.6899 35.67C75.6899 37.2128 76.0303 38.4417 76.7113 39.3567C77.3923 40.2611 78.3711 40.7133 79.6479 40.7133C80.5842 40.7133 81.3131 40.5005 81.8344 40.0749C82.3664 39.6493 82.7654 39.0003 83.0314 38.1278L87.4683 39.0535C86.9788 40.8836 86.0532 42.2934 84.6913 43.2829C83.3293 44.2724 81.6482 44.7671 79.6479 44.7671Z" fill="black"/>
<path d="M94.7462 27.8816C95.7145 27.2857 96.8636 26.9878 98.1936 26.9878C98.5553 26.9878 98.8852 27.0091 99.1831 27.0517V31.1055C98.8533 30.9991 98.4436 30.9459 97.9542 30.9459C97.1456 30.9459 96.4274 31.0948 95.7996 31.3927C95.0335 31.7439 94.4483 32.2652 94.044 32.9568C93.6397 33.6484 93.4375 34.489 93.4375 35.4785V44.2883H89.0645V27.0517H92.8949V29.8287C93.3737 28.9668 93.9908 28.3178 94.7462 27.8816Z" fill="black"/>
<path d="M114.069 29.701C114.377 30.2756 114.569 30.8608 114.643 31.4566C114.728 32.0418 114.771 32.8079 114.771 33.7548V44.2883H110.972V42.1816C110.206 43.0967 109.366 43.7564 108.451 44.1607C107.536 44.565 106.419 44.7671 105.099 44.7671C103.908 44.7671 102.875 44.5384 102.003 44.0809C101.141 43.6127 100.482 42.9796 100.024 42.1816C99.5771 41.3836 99.3537 40.5005 99.3537 39.5323C99.3537 38.2768 99.6463 37.2181 100.231 36.3563C100.817 35.4944 101.78 34.8188 103.12 34.3294C103.865 34.0527 104.775 33.8187 105.849 33.6271C106.924 33.425 108.472 33.1749 110.494 32.877C110.409 32.0684 110.111 31.4779 109.6 31.1055C109.1 30.7224 108.344 30.5309 107.334 30.5309C106.599 30.5309 105.903 30.7012 105.243 31.0416C104.583 31.3821 104.131 31.9141 103.886 32.6376L99.9601 31.3927C100.407 29.9032 101.248 28.7274 102.482 27.8656C103.716 27.0038 105.333 26.5729 107.334 26.5729C110.728 26.5729 112.973 27.6156 114.069 29.701ZM110.015 39.0535C110.292 38.4896 110.44 37.6012 110.462 36.3882C108.962 36.6436 107.86 36.8457 107.158 36.9947C106.456 37.1436 105.865 37.3086 105.387 37.4894C104.759 37.7448 104.301 38.0321 104.014 38.3513C103.737 38.6598 103.599 39.0322 103.599 39.4685C103.599 40.0537 103.812 40.5165 104.237 40.857C104.674 41.1868 105.269 41.3517 106.025 41.3517C106.759 41.3517 107.403 41.224 107.956 40.9687C108.509 40.7027 108.951 40.3941 109.281 40.043C109.621 39.6919 109.866 39.3621 110.015 39.0535Z" fill="black"/>
<path d="M125.56 26.5729C127.177 26.5729 128.603 26.9612 129.837 27.7379C131.082 28.5146 132.04 29.5946 132.71 30.9778C133.391 32.361 133.732 33.9251 133.732 35.67C133.732 37.383 133.396 38.9311 132.726 40.3143C132.066 41.6975 131.13 42.7881 129.917 43.5861C128.715 44.3735 127.337 44.7671 125.784 44.7671C123.964 44.7671 122.411 44.2777 121.123 43.2988V44.2883H117.293V21.3061H121.666V27.6262C122.783 26.924 124.081 26.5729 125.56 26.5729ZM125.081 40.9049C126.422 40.9049 127.433 40.4207 128.114 39.4525C128.795 38.4736 129.135 37.2128 129.135 35.67C129.135 34.6805 128.981 33.7921 128.672 33.0047C128.364 32.2173 127.896 31.5949 127.268 31.1374C126.64 30.6692 125.858 30.4352 124.922 30.4352C123.613 30.4352 122.65 30.898 122.033 31.8237C121.426 32.7493 121.123 34.0315 121.123 35.67C121.123 39.1599 122.443 40.9049 125.081 40.9049Z" fill="black"/>
<mask id="mask0_702_206" style="mask-type:alpha" maskUnits="userSpaceOnUse" x="129" y="0" width="31" height="31">
<path fill-rule="evenodd" clip-rule="evenodd" d="M144.998 30.238C153.283 30.238 160 23.5211 160 15.2354C160 6.94964 153.283 0.232727 144.998 0.232727C136.761 0.232727 130.074 6.87073 129.996 15.0891L144.997 15.0891V30.238C144.997 30.238 144.997 30.238 144.998 30.238Z" fill="#B30000"/>
</mask>
<g mask="url(#mask0_702_206)">
<path fill-rule="evenodd" clip-rule="evenodd" d="M144.998 30.238C153.283 30.238 160 23.5211 160 15.2354C160 6.94964 153.283 0.232727 144.998 0.232727C136.761 0.232727 130.074 6.87073 129.996 15.0891L144.997 15.0891V30.238C144.997 30.238 144.997 30.238 144.998 30.238Z" fill="#B30000"/>
<g filter="url(#filter0_d_702_206)">
<path fill-rule="evenodd" clip-rule="evenodd" d="M159.999 15.0784L129.995 15.0784C130.079 6.86498 136.764 0.232727 144.997 0.232727C153.23 0.232727 159.915 6.86498 159.999 15.0784Z" fill="#CF2601"/>
</g>
</g>
<defs>
<filter id="filter0_d_702_206" x="125.995" y="0.232727" width="38.0039" height="22.8457" filterUnits="userSpaceOnUse" color-interpolation-filters="sRGB">
<feFlood flood-opacity="0" result="BackgroundImageFix"/>
<feColorMatrix in="SourceAlpha" type="matrix" values="0 0 0 0 0 0 0 0 0 0 0 0 0 0 0 0 0 0 127 0" result="hardAlpha"/>
<feOffset dy="4"/>
<feGaussianBlur stdDeviation="2"/>
<feComposite in2="hardAlpha" operator="out"/>
<feColorMatrix type="matrix" values="0 0 0 0 0 0 0 0 0 0 0 0 0 0 0 0 0 0 0.16 0"/>
<feBlend mode="normal" in2="BackgroundImageFix" result="effect1_dropShadow_702_206"/>
<feBlend mode="normal" in="SourceGraphic" in2="effect1_dropShadow_702_206" result="shape"/>
</filter>
</defs>
</svg>
